<svg xmlns="http://www.w3.org/2000/svg" width="20" height="20" fill="none"><path fill="#f3164e" d="M8.359 7.476a.625.625 0 0 0-.884.884L9.116 10l-1.641 1.642a.625.625 0 0 0 .884.884L10 10.885l1.642 1.642a.625.625 0 0 0 .884-.884L10.884 10l1.642-1.641a.625.625 0 1 0-.884-.884L10 9.117z"/><path fill="#f3164e" fill-rule="evenodd" d="M10 1.043a8.958 8.958 0 1 0 0 17.917 8.958 8.958 0 0 0 0-17.917m-7.708 8.958a7.708 7.708 0 1 1 15.417 0 7.708 7.708 0 0 1-15.417 0" clip-rule="evenodd"/><path stroke="#f3164e" d="M8.359 7.476a.625.625 0 0 0-.884.884L9.116 10l-1.641 1.642a.625.625 0 0 0 .884.884L10 10.885l1.642 1.642a.625.625 0 0 0 .884-.884L10.884 10l1.642-1.641a.625.625 0 1 0-.884-.884L10 9.117z"/><path stroke="#f3164e" d="M10 1.043a8.958 8.958 0 1 0 0 17.917 8.958 8.958 0 0 0 0-17.917Zm-7.708 8.958a7.708 7.708 0 1 1 15.417 0 7.708 7.708 0 0 1-15.417 0Z" clip-rule="evenodd"/></svg>